<svg xmlns="http://www.w3.org/2000/svg" width="1170" height="1266" viewBox="0 0 1170 1266" font-family="Helvetica,Arial,sans-serif">
<defs><marker id="ah" markerWidth="10" markerHeight="10" refX="8" refY="3" orient="auto" markerUnits="userSpaceOnUse"><path d="M0,0 L9,3 L0,6 Z" fill="#37474F"/></marker><marker id="ahr" markerWidth="10" markerHeight="10" refX="8" refY="3" orient="auto" markerUnits="userSpaceOnUse"><path d="M0,0 L9,3 L0,6 Z" fill="#78909C"/></marker></defs>
<rect x="0" y="0" width="1170" height="1266" fill="#FFFFFF"/>
<text x="40" y="24" font-size="17" font-weight="bold" fill="#222">Diagrama leve · F19 — Gerenciar clientes e leads (CP1)</text>
<line x1="125" y1="80" x2="125" y2="1246" stroke="#B0BEC5" stroke-width="1.4" stroke-dasharray="5,5"/>
<rect x="40" y="40" width="170" height="40" rx="7" fill="#5B3E96"/>
<text x="125" y="65" text-anchor="middle" font-size="13" font-weight="bold" fill="#FFFFFF">Visitante</text>
<line x1="355" y1="80" x2="355" y2="1246" stroke="#B0BEC5" stroke-width="1.4" stroke-dasharray="5,5"/>
<rect x="270" y="40" width="170" height="40" rx="7" fill="#5B3E96"/>
<text x="355" y="65" text-anchor="middle" font-size="13" font-weight="bold" fill="#FFFFFF">Admin</text>
<line x1="585" y1="80" x2="585" y2="1246" stroke="#B0BEC5" stroke-width="1.4" stroke-dasharray="5,5"/>
<rect x="500" y="40" width="170" height="40" rx="7" fill="#D63384"/>
<text x="585" y="65" text-anchor="middle" font-size="13" font-weight="bold" fill="#FFFFFF">SvelteKit</text>
<line x1="815" y1="80" x2="815" y2="1246" stroke="#B0BEC5" stroke-width="1.4" stroke-dasharray="5,5"/>
<rect x="730" y="40" width="170" height="40" rx="7" fill="#E67E22"/>
<text x="815" y="65" text-anchor="middle" font-size="13" font-weight="bold" fill="#FFFFFF">Express API</text>
<line x1="1045" y1="80" x2="1045" y2="1246" stroke="#B0BEC5" stroke-width="1.4" stroke-dasharray="5,5"/>
<rect x="960" y="40" width="170" height="40" rx="7" fill="#2BB673"/>
<text x="1045" y="65" text-anchor="middle" font-size="13" font-weight="bold" fill="#FFFFFF">Supabase DB</text>
<rect x="20" y="108" width="1130" height="26" rx="5" fill="#FCE7A2" stroke="#E0B33A" stroke-width="1"/>
<text x="585" y="125" text-anchor="middle" font-size="12.5" font-weight="bold" fill="#5A4500">RF37 · Captura de lead -&gt; card no CRM (ACID)</text>
<text x="355" y="166" text-anchor="middle" font-size="11" fill="#333">preenche formulario + consentimento LGPD</text>
<line x1="125" y1="172" x2="585" y2="172" stroke="#37474F" stroke-width="1.5" marker-end="url(#ah)"/>
<text x="700" y="210" text-anchor="middle" font-size="11" fill="#333">POST /api/public/contact</text>
<line x1="585" y1="216" x2="815" y2="216" stroke="#37474F" stroke-width="1.5" marker-end="url(#ah)"/>
<path d="M815,252 h30 v18 h-30" fill="none" stroke="#37474F" stroke-width="1.5" marker-end="url(#ah)"/>
<text x="853" y="258" font-size="11" fill="#333">valida + rate-limit + sanitiza</text>
<rect x="818" y="274" width="224" height="30" rx="4" fill="#FFF8C8" stroke="#E0C200" stroke-width="1"/>
<text x="930" y="293" text-anchor="middle" font-size="11" font-style="italic" fill="#5A4A00">transacao unica (ACID - RNF06)</text>
<text x="930" y="334" text-anchor="middle" font-size="11" fill="#333">INSERT client + client_card(coluna default) + notification</text>
<line x1="815" y1="340" x2="1045" y2="340" stroke="#37474F" stroke-width="1.5" marker-end="url(#ah)"/>
<text x="930" y="378" text-anchor="middle" font-size="11" fill="#333">commit OK</text>
<line x1="1045" y1="384" x2="815" y2="384" stroke="#78909C" stroke-width="1.5" stroke-dasharray="6,4" marker-end="url(#ahr)"/>
<text x="700" y="418" text-anchor="middle" font-size="11" fill="#333">201 Created</text>
<line x1="815" y1="424" x2="585" y2="424" stroke="#78909C" stroke-width="1.5" stroke-dasharray="6,4" marker-end="url(#ahr)"/>
<text x="355" y="458" text-anchor="middle" font-size="11" fill="#333">toast de sucesso -&gt; card aparece no board</text>
<line x1="585" y1="464" x2="125" y2="464" stroke="#78909C" stroke-width="1.5" stroke-dasharray="6,4" marker-end="url(#ahr)"/>
<rect x="20" y="484" width="1130" height="26" rx="5" fill="#FCE7A2" stroke="#E0B33A" stroke-width="1"/>
<text x="585" y="501" text-anchor="middle" font-size="12.5" font-weight="bold" fill="#5A4500">RF35 · Editar  /  RF36 · Inativar cliente</text>
<text x="470" y="542" text-anchor="middle" font-size="11" fill="#333">editar dados / inativar cliente</text>
<line x1="355" y1="548" x2="585" y2="548" stroke="#37474F" stroke-width="1.5" marker-end="url(#ah)"/>
<text x="700" y="586" text-anchor="middle" font-size="11" fill="#333">PATCH /api/crm/clients/:id  (Bearer)</text>
<line x1="585" y1="592" x2="815" y2="592" stroke="#37474F" stroke-width="1.5" marker-end="url(#ah)"/>
<path d="M815,628 h30 v18 h-30" fill="none" stroke="#37474F" stroke-width="1.5" marker-end="url(#ah)"/>
<text x="853" y="634" font-size="11" fill="#333">validateJWT + requireRole</text>
<text x="930" y="664" text-anchor="middle" font-size="11" fill="#333">UPDATE clients SET ... | status=inativo</text>
<line x1="815" y1="670" x2="1045" y2="670" stroke="#37474F" stroke-width="1.5" marker-end="url(#ah)"/>
<text x="700" y="708" text-anchor="middle" font-size="11" fill="#333">200 OK</text>
<line x1="815" y1="714" x2="585" y2="714" stroke="#78909C" stroke-width="1.5" stroke-dasharray="6,4" marker-end="url(#ahr)"/>
<text x="470" y="748" text-anchor="middle" font-size="11" fill="#333">lista atualizada sem reload</text>
<line x1="585" y1="754" x2="355" y2="754" stroke="#78909C" stroke-width="1.5" stroke-dasharray="6,4" marker-end="url(#ahr)"/>
<rect x="20" y="774" width="1130" height="26" rx="5" fill="#FCE7A2" stroke="#E0B33A" stroke-width="1"/>
<text x="585" y="791" text-anchor="middle" font-size="12.5" font-weight="bold" fill="#5A4500">RF41 · Atualizar informacoes do card</text>
<text x="470" y="832" text-anchor="middle" font-size="11" fill="#333">atualizar / mover card (drag-and-drop)</text>
<line x1="355" y1="838" x2="585" y2="838" stroke="#37474F" stroke-width="1.5" marker-end="url(#ah)"/>
<text x="700" y="876" text-anchor="middle" font-size="11" fill="#333">PATCH /api/crm/cards/:id  (Bearer)</text>
<line x1="585" y1="882" x2="815" y2="882" stroke="#37474F" stroke-width="1.5" marker-end="url(#ah)"/>
<text x="930" y="920" text-anchor="middle" font-size="11" fill="#333">UPDATE client_card</text>
<line x1="815" y1="926" x2="1045" y2="926" stroke="#37474F" stroke-width="1.5" marker-end="url(#ah)"/>
<text x="700" y="964" text-anchor="middle" font-size="11" fill="#333">200 OK</text>
<line x1="815" y1="970" x2="585" y2="970" stroke="#78909C" stroke-width="1.5" stroke-dasharray="6,4" marker-end="url(#ahr)"/>
<text x="470" y="1004" text-anchor="middle" font-size="11" fill="#333">card atualizado de forma intuitiva (RNF24/RNF25)</text>
<line x1="585" y1="1010" x2="355" y2="1010" stroke="#78909C" stroke-width="1.5" stroke-dasharray="6,4" marker-end="url(#ahr)"/>
<rect x="20" y="1030" width="1130" height="26" rx="5" fill="#FCE7A2" stroke="#E0B33A" stroke-width="1"/>
<text x="585" y="1047" text-anchor="middle" font-size="12.5" font-weight="bold" fill="#5A4500">Tentativa sem autorizacao</text>
<text x="470" y="1088" text-anchor="middle" font-size="11" fill="#333">PATCH com token invalido</text>
<line x1="355" y1="1094" x2="585" y2="1094" stroke="#37474F" stroke-width="1.5" marker-end="url(#ah)"/>
<text x="700" y="1132" text-anchor="middle" font-size="11" fill="#333">Authorization: Bearer &lt;invalido&gt;</text>
<line x1="585" y1="1138" x2="815" y2="1138" stroke="#37474F" stroke-width="1.5" marker-end="url(#ah)"/>
<path d="M815,1174 h30 v18 h-30" fill="none" stroke="#37474F" stroke-width="1.5" marker-end="url(#ah)"/>
<text x="853" y="1180" font-size="11" fill="#333">validateJWT falha</text>
<text x="700" y="1210" text-anchor="middle" font-size="11" fill="#333">401 Unauthorized</text>
<line x1="815" y1="1216" x2="585" y2="1216" stroke="#78909C" stroke-width="1.5" stroke-dasharray="6,4" marker-end="url(#ahr)"/>
</svg>