<?xml version="1.0"?>
<svg version="1.0" xmlns="http://www.w3.org/2000/svg" width="2000pt" height="2000pt" viewBox="0 0 2000 2000" preserveAspectRatio="xMidYMid meet">
  <style>
    @media (prefers-color-scheme: dark) {
      g { fill: #ffffff; }
    }
  </style>
  <g transform="translate(0,2000) scale(0.1,-0.1)" fill="#000000" stroke="none">
    <path d="M3515 10638 c-600 -1568 -1100 -2878 -1112 -2910 l-22 -58 416 2 416
3 1088 2845 c599 1565 1099 2873 1113 2908 l24 62 -416 0 -417 0 -1090 -2852z"/>
    <path d="M14710 12518 l1 -483 874 -529 c481 -291 875 -535 875 -541 0 -7
-394 -250 -875 -541 l-874 -529 -1 -482 c0 -266 3 -483 6 -483 3 0 595 375
1315 833 l1309 832 0 370 -1 370 -1305 830 c-718 457 -1309 832 -1315 833 -5
2 -9 -181 -9 -480z"/>
    <path d="M7814 10220 c-223 -40 -421 -182 -532 -380 -63 -113 -85 -200 -90
-360 -3 -122 -1 -158 16 -231 25 -104 57 -178 111 -258 146 -214 368 -325 651
-325 283 0 505 111 651 325 90 133 129 269 129 454 0 136 -16 223 -58 323 -92
218 -267 370 -507 439 -61 17 -300 26 -371 13z"/>
    <path d="M10410 8010 l0 -370 1620 0 1620 0 0 370 0 370 -1620 0 -1620 0 0
-370z"/>
  </g>
</svg>
