<?xml version="1.0" encoding="UTF-8" standalone="no"?>
<!DOCTYPE svg PUBLIC "-//W3C//DTD SVG 1.1//EN"
 "http://www.w3.org/Graphics/SVG/1.1/DTD/svg11.dtd">
<!-- Generated by graphviz version 2.43.0 (0)
 -->
<!-- Title: DEP Pages: 1 -->
<svg width="1236pt" height="730pt"
 viewBox="0.00 0.00 1236.00 730.00" xmlns="http://www.w3.org/2000/svg" xmlns:xlink="http://www.w3.org/1999/xlink">
<g id="graph0" class="graph" transform="scale(1 1) rotate(0) translate(4 726)">
<title>DEP</title>
<polygon fill="white" stroke="transparent" points="-4,4 -4,-726 1232,-726 1232,4 -4,4"/>
<text text-anchor="middle" x="614" y="-700.4" font-family="Helvetica,sans-Serif" font-size="22.00">Lead Capture (refatorado) · CP1 + CP9 — Dependencias de Features e Issues</text>
<text text-anchor="middle" x="614" y="-676.4" font-family="Helvetica,sans-Serif" font-size="22.00">(schemas como ancoras · Auth/contato = pre&#45;requisitos da IT1)</text>
<g id="clust1" class="cluster">
<title>cluster_Pre</title>
<path fill="#fcf8c8" stroke="#9e5b3a" stroke-width="2.2" d="M20,-345C20,-345 179,-345 179,-345 185,-345 191,-351 191,-357 191,-357 191,-477 191,-477 191,-483 185,-489 179,-489 179,-489 20,-489 20,-489 14,-489 8,-483 8,-477 8,-477 8,-357 8,-357 8,-351 14,-345 20,-345"/>
<text text-anchor="middle" x="99.5" y="-474.6" font-family="Helvetica,sans-Serif" font-weight="bold" font-size="13.00" fill="#9e5b3a">Pre&#45;requisitos (IT1)</text>
</g>
<g id="clust2" class="cluster">
<title>cluster_F20</title>
<path fill="#fcf8c8" stroke="#2e7d32" stroke-width="2.2" d="M24,-572C24,-572 652.5,-572 652.5,-572 658.5,-572 664.5,-578 664.5,-584 664.5,-584 664.5,-646 664.5,-646 664.5,-652 658.5,-658 652.5,-658 652.5,-658 24,-658 24,-658 18,-658 12,-652 12,-646 12,-646 12,-584 12,-584 12,-578 18,-572 24,-572"/>
<text text-anchor="middle" x="338.25" y="-643.6" font-family="Helvetica,sans-Serif" font-weight="bold" font-size="13.00" fill="#2e7d32">F20 — Colunas do funil · CP1</text>
</g>
<g id="clust3" class="cluster">
<title>cluster_F19</title>
<path fill="#fcf8c8" stroke="#2e7d32" stroke-width="2.2" d="M276,-376C276,-376 1204,-376 1204,-376 1210,-376 1216,-382 1216,-388 1216,-388 1216,-508 1216,-508 1216,-514 1210,-520 1204,-520 1204,-520 276,-520 276,-520 270,-520 264,-514 264,-508 264,-508 264,-388 264,-388 264,-382 270,-376 276,-376"/>
<text text-anchor="middle" x="740" y="-505.6" font-family="Helvetica,sans-Serif" font-weight="bold" font-size="13.00" fill="#2e7d32">F19 — Gerenciar clientes e leads · CP1</text>
</g>
<g id="clust4" class="cluster">
<title>cluster_F21</title>
<path fill="#fcf8c8" stroke="#2e7d32" stroke-width="2.2" d="M522,-282C522,-282 1208,-282 1208,-282 1214,-282 1220,-288 1220,-294 1220,-294 1220,-356 1220,-356 1220,-362 1214,-368 1208,-368 1208,-368 522,-368 522,-368 516,-368 510,-362 510,-356 510,-356 510,-294 510,-294 510,-288 516,-282 522,-282"/>
<text text-anchor="middle" x="865" y="-353.6" font-family="Helvetica,sans-Serif" font-weight="bold" font-size="13.00" fill="#2e7d32">F21 — Registrar interacoes · CP1</text>
</g>
<g id="clust5" class="cluster">
<title>cluster_F07</title>
<path fill="#fcf8c8" stroke="#6a1b9a" stroke-width="2.2" d="M30,-8C30,-8 659,-8 659,-8 665,-8 671,-14 671,-20 671,-20 671,-82 671,-82 671,-88 665,-94 659,-94 659,-94 30,-94 30,-94 24,-94 18,-88 18,-82 18,-82 18,-20 18,-20 18,-14 24,-8 30,-8"/>
<text text-anchor="middle" x="344.5" y="-79.6" font-family="Helvetica,sans-Serif" font-weight="bold" font-size="13.00" fill="#6a1b9a">F07 — Historico e status notif. · CP9</text>
</g>
<g id="clust6" class="cluster">
<title>cluster_F08</title>
<path fill="#fcf8c8" stroke="#6a1b9a" stroke-width="2.2" d="M267,-102C267,-102 965,-102 965,-102 971,-102 977,-108 977,-114 977,-114 977,-176 977,-176 977,-182 971,-188 965,-188 965,-188 267,-188 267,-188 261,-188 255,-182 255,-176 255,-176 255,-114 255,-114 255,-108 261,-102 267,-102"/>
<text text-anchor="middle" x="616" y="-173.6" font-family="Helvetica,sans-Serif" font-weight="bold" font-size="13.00" fill="#6a1b9a">F08 — Templates de notificacoes · CP9</text>
</g>
<!-- auth -->
<g id="node1" class="node">
<title>auth</title>
<path fill="white" stroke="#9aa0a6" d="M146.5,-395C146.5,-395 52.5,-395 52.5,-395 46.5,-395 40.5,-389 40.5,-383 40.5,-383 40.5,-371 40.5,-371 40.5,-365 46.5,-359 52.5,-359 52.5,-359 146.5,-359 146.5,-359 152.5,-359 158.5,-365 158.5,-371 158.5,-371 158.5,-383 158.5,-383 158.5,-389 152.5,-395 146.5,-395"/>
<text text-anchor="middle" x="99.5" y="-380.2" font-family="Helvetica,sans-Serif" font-size="11.00">F09 · Auth admin</text>
<text text-anchor="middle" x="99.5" y="-368.2" font-family="Helvetica,sans-Serif" font-size="11.00">(JWT middleware)</text>
</g>
<!-- n20b -->
<g id="node4" class="node">
<title>n20b</title>
<path fill="white" stroke="#9aa0a6" d="M388.5,-622C388.5,-622 284.5,-622 284.5,-622 278.5,-622 272.5,-616 272.5,-610 272.5,-610 272.5,-598 272.5,-598 272.5,-592 278.5,-586 284.5,-586 284.5,-586 388.5,-586 388.5,-586 394.5,-586 400.5,-592 400.5,-598 400.5,-598 400.5,-610 400.5,-610 400.5,-616 394.5,-622 388.5,-622"/>
<text text-anchor="middle" x="336.5" y="-607.2" font-family="Helvetica,sans-Serif" font-size="11.00">Endpoints colunas</text>
<text text-anchor="middle" x="336.5" y="-595.2" font-family="Helvetica,sans-Serif" font-size="11.00">+ invariantes (409)</text>
</g>
<!-- auth&#45;&gt;n20b -->
<g id="edge14" class="edge">
<title>auth&#45;&gt;n20b</title>
<path fill="none" stroke="#9aa0a6" stroke-width="1.4" stroke-dasharray="5,2" d="M158.92,-388.46C170.4,-392.63 181.74,-398.3 191,-406 237.17,-444.4 218.94,-476.98 255,-525 270.26,-545.32 290.73,-565.34 307.22,-580.14"/>
<polygon fill="#9aa0a6" stroke="#9aa0a6" stroke-width="1.4" points="305.7,-582.54 313.55,-585.75 309.41,-578.35 305.7,-582.54"/>
</g>
<!-- n19b -->
<g id="node7" class="node">
<title>n19b</title>
<path fill="white" stroke="#9aa0a6" d="M673,-426C673,-426 508,-426 508,-426 502,-426 496,-420 496,-414 496,-414 496,-402 496,-402 496,-396 502,-390 508,-390 508,-390 673,-390 673,-390 679,-390 685,-396 685,-402 685,-402 685,-414 685,-414 685,-420 679,-426 673,-426"/>
<text text-anchor="middle" x="590.5" y="-411.2" font-family="Helvetica,sans-Serif" font-size="11.00">Endpoints CRUD clientes/leads</text>
<text text-anchor="middle" x="590.5" y="-399.2" font-family="Helvetica,sans-Serif" font-size="11.00">+ atualizar card (RF35/36/41)</text>
</g>
<!-- auth&#45;&gt;n19b -->
<g id="edge13" class="edge">
<title>auth&#45;&gt;n19b</title>
<path fill="none" stroke="#9aa0a6" stroke-width="1.4" stroke-dasharray="5,2" d="M158.87,-394.37C169.65,-397.95 180.74,-401.89 191,-406 220.34,-417.74 224.19,-429.93 255,-437 342.22,-457.01 445.11,-442.59 513.52,-427.84"/>
<polygon fill="#9aa0a6" stroke="#9aa0a6" stroke-width="1.4" points="514.48,-430.5 521.69,-426.05 513.28,-425.03 514.48,-430.5"/>
</g>
<!-- n21b -->
<g id="node12" class="node">
<title>n21b</title>
<path fill="white" stroke="#9aa0a6" d="M960,-332C960,-332 819,-332 819,-332 813,-332 807,-326 807,-320 807,-320 807,-308 807,-308 807,-302 813,-296 819,-296 819,-296 960,-296 960,-296 966,-296 972,-302 972,-308 972,-308 972,-320 972,-320 972,-326 966,-332 960,-332"/>
<text text-anchor="middle" x="889.5" y="-317.2" font-family="Helvetica,sans-Serif" font-size="11.00">Endpoints CRUD interacao</text>
<text text-anchor="middle" x="889.5" y="-305.2" font-family="Helvetica,sans-Serif" font-size="11.00">(add/editar/remover)</text>
</g>
<!-- auth&#45;&gt;n21b -->
<g id="edge15" class="edge">
<title>auth&#45;&gt;n21b</title>
<path fill="none" stroke="#9aa0a6" stroke-width="1.4" stroke-dasharray="5,2" d="M158.73,-359.03C235.22,-336.46 374.14,-298.99 496,-285 579.45,-275.42 601.21,-279.06 685,-285 722.4,-287.65 763.37,-293.01 798.69,-298.41"/>
<polygon fill="#9aa0a6" stroke="#9aa0a6" stroke-width="1.4" points="798.27,-301.18 806.6,-299.63 799.12,-295.64 798.27,-301.18"/>
</g>
<!-- n07b -->
<g id="node15" class="node">
<title>n07b</title>
<path fill="white" stroke="#9aa0a6" d="M401,-58C401,-58 272,-58 272,-58 266,-58 260,-52 260,-46 260,-46 260,-34 260,-34 260,-28 266,-22 272,-22 272,-22 401,-22 401,-22 407,-22 413,-28 413,-34 413,-34 413,-46 413,-46 413,-52 407,-58 401,-58"/>
<text text-anchor="middle" x="336.5" y="-43.2" font-family="Helvetica,sans-Serif" font-size="11.00">Endpoints listar +</text>
<text text-anchor="middle" x="336.5" y="-31.2" font-family="Helvetica,sans-Serif" font-size="11.00">alterar status (RF46/47)</text>
</g>
<!-- auth&#45;&gt;n07b -->
<g id="edge16" class="edge">
<title>auth&#45;&gt;n07b</title>
<path fill="none" stroke="#9aa0a6" stroke-width="1.4" stroke-dasharray="5,2" d="M107.16,-358.89C125.18,-311.61 178.78,-182.27 255,-97 266.77,-83.83 282.12,-72.03 296.26,-62.62"/>
<polygon fill="#9aa0a6" stroke="#9aa0a6" stroke-width="1.4" points="297.89,-64.9 303.08,-58.2 294.84,-60.2 297.89,-64.9"/>
</g>
<!-- n08b -->
<g id="node18" class="node">
<title>n08b</title>
<path fill="white" stroke="#9aa0a6" d="M663,-152C663,-152 518,-152 518,-152 512,-152 506,-146 506,-140 506,-140 506,-128 506,-128 506,-122 512,-116 518,-116 518,-116 663,-116 663,-116 669,-116 675,-122 675,-128 675,-128 675,-140 675,-140 675,-146 669,-152 663,-152"/>
<text text-anchor="middle" x="590.5" y="-137.2" font-family="Helvetica,sans-Serif" font-size="11.00">Endpoints CRUD templates</text>
<text text-anchor="middle" x="590.5" y="-125.2" font-family="Helvetica,sans-Serif" font-size="11.00">(RF15/56/57)</text>
</g>
<!-- auth&#45;&gt;n08b -->
<g id="edge17" class="edge">
<title>auth&#45;&gt;n08b</title>
<path fill="none" stroke="#9aa0a6" stroke-width="1.4" stroke-dasharray="5,2" d="M130.57,-358.87C161.41,-340.52 210.96,-311.7 255,-289 354.57,-237.69 474.33,-184.1 540.14,-155.32"/>
<polygon fill="#9aa0a6" stroke="#9aa0a6" stroke-width="1.4" points="541.29,-157.87 547.5,-152.11 539.05,-152.74 541.29,-157.87"/>
</g>
<!-- contact -->
<g id="node2" class="node">
<title>contact</title>
<path fill="white" stroke="#9aa0a6" d="M165,-453C165,-453 34,-453 34,-453 28,-453 22,-447 22,-441 22,-441 22,-429 22,-429 22,-423 28,-417 34,-417 34,-417 165,-417 165,-417 171,-417 177,-423 177,-429 177,-429 177,-441 177,-441 177,-447 171,-453 165,-453"/>
<text text-anchor="middle" x="99.5" y="-438.2" font-family="Helvetica,sans-Serif" font-size="11.00">POST /api/public/contact</text>
<text text-anchor="middle" x="99.5" y="-426.2" font-family="Helvetica,sans-Serif" font-size="11.00">(IT1)</text>
</g>
<!-- n19c -->
<g id="node8" class="node">
<title>n19c</title>
<path fill="white" stroke="#9aa0a6" d="M672,-484C672,-484 509,-484 509,-484 503,-484 497,-478 497,-472 497,-472 497,-460 497,-460 497,-454 503,-448 509,-448 509,-448 672,-448 672,-448 678,-448 684,-454 684,-460 684,-460 684,-472 684,-472 684,-478 678,-484 672,-484"/>
<text text-anchor="middle" x="590.5" y="-469.2" font-family="Helvetica,sans-Serif" font-size="11.00">Estender POST /public/contact</text>
<text text-anchor="middle" x="590.5" y="-457.2" font-family="Helvetica,sans-Serif" font-size="11.00">(card + notif · ACID) (RF37)</text>
</g>
<!-- contact&#45;&gt;n19c -->
<g id="edge18" class="edge">
<title>contact&#45;&gt;n19c</title>
<path fill="none" stroke="#9aa0a6" stroke-width="1.4" stroke-dasharray="5,2" d="M177.29,-448.35C202.03,-452.13 229.6,-455.81 255,-458 333.12,-464.72 421.85,-466.58 488.29,-466.83"/>
<polygon fill="#9aa0a6" stroke="#9aa0a6" stroke-width="1.4" points="488.68,-469.64 496.69,-466.86 488.69,-464.04 488.68,-469.64"/>
</g>
<!-- n20a -->
<g id="node3" class="node">
<title>n20a</title>
<path fill="white" stroke="#9aa0a6" d="M161,-622C161,-622 38,-622 38,-622 32,-622 26,-616 26,-610 26,-610 26,-598 26,-598 26,-592 32,-586 38,-586 38,-586 161,-586 161,-586 167,-586 173,-592 173,-598 173,-598 173,-610 173,-610 173,-616 167,-622 161,-622"/>
<text text-anchor="middle" x="99.5" y="-607.2" font-family="Helvetica,sans-Serif" font-size="11.00">Schema crm_columns</text>
<text text-anchor="middle" x="99.5" y="-595.2" font-family="Helvetica,sans-Serif" font-size="11.00">(default, ordem) + RLS</text>
</g>
<!-- n20a&#45;&gt;n20b -->
<g id="edge1" class="edge">
<title>n20a&#45;&gt;n20b</title>
<path fill="none" stroke="#202124" stroke-width="1.4" d="M173.25,-604C202.2,-604 235.42,-604 264.23,-604"/>
<polygon fill="#202124" stroke="#202124" stroke-width="1.4" points="264.23,-606.8 272.23,-604 264.23,-601.2 264.23,-606.8"/>
</g>
<!-- n20a&#45;&gt;n19c -->
<g id="edge20" class="edge">
<title>n20a&#45;&gt;n19c</title>
<path fill="none" stroke="#2e7d32" stroke-width="1.4" d="M164.43,-585.96C255.58,-560.23 422.39,-513.16 517.69,-486.26"/>
<polygon fill="#2e7d32" stroke="#2e7d32" stroke-width="1.4" points="518.62,-488.91 525.56,-484.05 517.1,-483.52 518.62,-488.91"/>
</g>
<!-- n19d -->
<g id="node9" class="node">
<title>n19d</title>
<path fill="white" stroke="#9aa0a6" d="M999,-484C999,-484 780,-484 780,-484 774,-484 768,-478 768,-472 768,-472 768,-460 768,-460 768,-454 774,-448 780,-448 780,-448 999,-448 999,-448 1005,-448 1011,-454 1011,-460 1011,-460 1011,-472 1011,-472 1011,-478 1005,-484 999,-484"/>
<text text-anchor="middle" x="889.5" y="-469.2" font-family="Helvetica,sans-Serif" font-size="11.00">Board CRM Kanban: listagem +</text>
<text text-anchor="middle" x="889.5" y="-457.2" font-family="Helvetica,sans-Serif" font-size="11.00">drag&#45;drop + card expansivel (RNF24/25)</text>
</g>
<!-- n20a&#45;&gt;n19d -->
<g id="edge21" class="edge">
<title>n20a&#45;&gt;n19d</title>
<path fill="none" stroke="#2e7d32" stroke-width="1.4" d="M162.07,-622.1C271.16,-650.93 503.96,-697.77 685,-633 764.73,-604.47 835.65,-529.76 868.74,-490.66"/>
<polygon fill="#2e7d32" stroke="#2e7d32" stroke-width="1.4" points="871.12,-492.18 874.1,-484.25 866.82,-488.59 871.12,-492.18"/>
</g>
<!-- n20c -->
<g id="node5" class="node">
<title>n20c</title>
<path fill="white" stroke="#9aa0a6" d="M638.5,-622C638.5,-622 542.5,-622 542.5,-622 536.5,-622 530.5,-616 530.5,-610 530.5,-610 530.5,-598 530.5,-598 530.5,-592 536.5,-586 542.5,-586 542.5,-586 638.5,-586 638.5,-586 644.5,-586 650.5,-592 650.5,-598 650.5,-598 650.5,-610 650.5,-610 650.5,-616 644.5,-622 638.5,-622"/>
<text text-anchor="middle" x="590.5" y="-607.2" font-family="Helvetica,sans-Serif" font-size="11.00">UI criar/editar/</text>
<text text-anchor="middle" x="590.5" y="-595.2" font-family="Helvetica,sans-Serif" font-size="11.00">reordenar colunas</text>
</g>
<!-- n20b&#45;&gt;n20c -->
<g id="edge2" class="edge">
<title>n20b&#45;&gt;n20c</title>
<path fill="none" stroke="#202124" stroke-width="1.4" d="M400.76,-604C437.63,-604 484.12,-604 521.73,-604"/>
<polygon fill="#202124" stroke="#202124" stroke-width="1.4" points="522.11,-606.8 530.11,-604 522.11,-601.2 522.11,-606.8"/>
</g>
<!-- n20c&#45;&gt;n19d -->
<g id="edge24" class="edge">
<title>n20c&#45;&gt;n19d</title>
<path fill="none" stroke="#5f6368" stroke-width="1.4" d="M630.33,-585.96C684.8,-560.65 783.76,-514.67 842.06,-487.58"/>
<polygon fill="#5f6368" stroke="#5f6368" stroke-width="1.4" points="843.59,-489.96 849.66,-484.05 841.23,-484.88 843.59,-489.96"/>
</g>
<!-- n19a -->
<g id="node6" class="node">
<title>n19a</title>
<path fill="white" stroke="#9aa0a6" d="M383,-426C383,-426 290,-426 290,-426 284,-426 278,-420 278,-414 278,-414 278,-402 278,-402 278,-396 284,-390 290,-390 290,-390 383,-390 383,-390 389,-390 395,-396 395,-402 395,-402 395,-414 395,-414 395,-420 389,-426 383,-426"/>
<text text-anchor="middle" x="336.5" y="-411.2" font-family="Helvetica,sans-Serif" font-size="11.00">Schema clients +</text>
<text text-anchor="middle" x="336.5" y="-399.2" font-family="Helvetica,sans-Serif" font-size="11.00">client_card + RLS</text>
</g>
<!-- n19a&#45;&gt;n19b -->
<g id="edge3" class="edge">
<title>n19a&#45;&gt;n19b</title>
<path fill="none" stroke="#202124" stroke-width="1.4" d="M395.31,-408C422.66,-408 456.14,-408 487.54,-408"/>
<polygon fill="#202124" stroke="#202124" stroke-width="1.4" points="487.91,-410.8 495.91,-408 487.91,-405.2 487.91,-410.8"/>
</g>
<!-- n19a&#45;&gt;n19c -->
<g id="edge6" class="edge">
<title>n19a&#45;&gt;n19c</title>
<path fill="none" stroke="#202124" stroke-width="1.4" d="M395.31,-421.31C427.2,-428.64 467.41,-437.9 502.97,-446.08"/>
<polygon fill="#202124" stroke="#202124" stroke-width="1.4" points="502.52,-448.85 510.95,-447.92 503.78,-443.4 502.52,-448.85"/>
</g>
<!-- n21a -->
<g id="node11" class="node">
<title>n21a</title>
<path fill="white" stroke="#9aa0a6" d="M645,-332C645,-332 536,-332 536,-332 530,-332 524,-326 524,-320 524,-320 524,-308 524,-308 524,-302 530,-296 536,-296 536,-296 645,-296 645,-296 651,-296 657,-302 657,-308 657,-308 657,-320 657,-320 657,-326 651,-332 645,-332"/>
<text text-anchor="middle" x="590.5" y="-317.2" font-family="Helvetica,sans-Serif" font-size="11.00">Schema interactions</text>
<text text-anchor="middle" x="590.5" y="-305.2" font-family="Helvetica,sans-Serif" font-size="11.00">+ RLS</text>
</g>
<!-- n19a&#45;&gt;n21a -->
<g id="edge19" class="edge">
<title>n19a&#45;&gt;n21a</title>
<path fill="none" stroke="#00897b" stroke-width="1.4" d="M385.79,-389.99C427.94,-374.26 489.13,-351.44 533.43,-334.91"/>
<polygon fill="#00897b" stroke="#00897b" stroke-width="1.4" points="534.43,-337.53 540.94,-332.11 532.47,-332.28 534.43,-337.53"/>
</g>
<!-- n19b&#45;&gt;n19d -->
<g id="edge4" class="edge">
<title>n19b&#45;&gt;n19d</title>
<path fill="none" stroke="#202124" stroke-width="1.4" d="M683.84,-426.03C716.95,-432.5 754.42,-439.82 788.17,-446.41"/>
<polygon fill="#202124" stroke="#202124" stroke-width="1.4" points="787.82,-449.19 796.21,-447.98 788.9,-443.7 787.82,-449.19"/>
</g>
<!-- n19e -->
<g id="node10" class="node">
<title>n19e</title>
<path fill="white" stroke="#9aa0a6" d="M1190,-484C1190,-484 1110,-484 1110,-484 1104,-484 1098,-478 1098,-472 1098,-472 1098,-460 1098,-460 1098,-454 1104,-448 1110,-448 1110,-448 1190,-448 1190,-448 1196,-448 1202,-454 1202,-460 1202,-460 1202,-472 1202,-472 1202,-478 1196,-484 1190,-484"/>
<text text-anchor="middle" x="1150" y="-469.2" font-family="Helvetica,sans-Serif" font-size="11.00">Editar/inativar</text>
<text text-anchor="middle" x="1150" y="-457.2" font-family="Helvetica,sans-Serif" font-size="11.00">cliente (modal)</text>
</g>
<!-- n19d&#45;&gt;n19e -->
<g id="edge5" class="edge">
<title>n19d&#45;&gt;n19e</title>
<path fill="none" stroke="#202124" stroke-width="1.4" d="M1011.05,-466C1038.36,-466 1066.2,-466 1089.65,-466"/>
<polygon fill="#202124" stroke="#202124" stroke-width="1.4" points="1089.75,-468.8 1097.75,-466 1089.75,-463.2 1089.75,-468.8"/>
</g>
<!-- n21a&#45;&gt;n21b -->
<g id="edge7" class="edge">
<title>n21a&#45;&gt;n21b</title>
<path fill="none" stroke="#202124" stroke-width="1.4" d="M657.05,-314C698.7,-314 753.18,-314 798.82,-314"/>
<polygon fill="#202124" stroke="#202124" stroke-width="1.4" points="798.94,-316.8 806.94,-314 798.94,-311.2 798.94,-316.8"/>
</g>
<!-- n21c -->
<g id="node13" class="node">
<title>n21c</title>
<path fill="white" stroke="#9aa0a6" d="M1194,-332C1194,-332 1106,-332 1106,-332 1100,-332 1094,-326 1094,-320 1094,-320 1094,-308 1094,-308 1094,-302 1100,-296 1106,-296 1106,-296 1194,-296 1194,-296 1200,-296 1206,-302 1206,-308 1206,-308 1206,-320 1206,-320 1206,-326 1200,-332 1194,-332"/>
<text text-anchor="middle" x="1150" y="-311.2" font-family="Helvetica,sans-Serif" font-size="11.00">Timeline no card</text>
</g>
<!-- n21b&#45;&gt;n21c -->
<g id="edge8" class="edge">
<title>n21b&#45;&gt;n21c</title>
<path fill="none" stroke="#202124" stroke-width="1.4" d="M972.29,-314C1008.99,-314 1051.62,-314 1085.81,-314"/>
<polygon fill="#202124" stroke="#202124" stroke-width="1.4" points="1085.86,-316.8 1093.86,-314 1085.86,-311.2 1085.86,-316.8"/>
</g>
<!-- n07a -->
<g id="node14" class="node">
<title>n07a</title>
<path fill="white" stroke="#9aa0a6" d="M155,-58C155,-58 44,-58 44,-58 38,-58 32,-52 32,-46 32,-46 32,-34 32,-34 32,-28 38,-22 44,-22 44,-22 155,-22 155,-22 161,-22 167,-28 167,-34 167,-34 167,-46 167,-46 167,-52 161,-58 155,-58"/>
<text text-anchor="middle" x="99.5" y="-43.2" font-family="Helvetica,sans-Serif" font-size="11.00">Schema notifications</text>
<text text-anchor="middle" x="99.5" y="-31.2" font-family="Helvetica,sans-Serif" font-size="11.00">+ RLS</text>
</g>
<!-- n07a&#45;&gt;n19c -->
<g id="edge22" class="edge">
<title>n07a&#45;&gt;n19c</title>
<path fill="none" stroke="#6a1b9a" stroke-width="1.4" d="M116.33,-58.06C178.16,-128.23 404.43,-381.61 496,-437 500.59,-439.78 505.47,-442.31 510.5,-444.62"/>
<polygon fill="#6a1b9a" stroke="#6a1b9a" stroke-width="1.4" points="509.51,-447.24 517.96,-447.84 511.73,-442.1 509.51,-447.24"/>
</g>
<!-- n07a&#45;&gt;n07b -->
<g id="edge9" class="edge">
<title>n07a&#45;&gt;n07b</title>
<path fill="none" stroke="#202124" stroke-width="1.4" d="M167.21,-40C193.52,-40 224.03,-40 251.79,-40"/>
<polygon fill="#202124" stroke="#202124" stroke-width="1.4" points="251.93,-42.8 259.93,-40 251.93,-37.2 251.93,-42.8"/>
</g>
<!-- n08a -->
<g id="node17" class="node">
<title>n08a</title>
<path fill="white" stroke="#9aa0a6" d="M392,-152C392,-152 281,-152 281,-152 275,-152 269,-146 269,-140 269,-140 269,-128 269,-128 269,-122 275,-116 281,-116 281,-116 392,-116 392,-116 398,-116 404,-122 404,-128 404,-128 404,-140 404,-140 404,-146 398,-152 392,-152"/>
<text text-anchor="middle" x="336.5" y="-137.2" font-family="Helvetica,sans-Serif" font-size="11.00">Schema notification_</text>
<text text-anchor="middle" x="336.5" y="-125.2" font-family="Helvetica,sans-Serif" font-size="11.00">templates + RLS</text>
</g>
<!-- n07a&#45;&gt;n08a -->
<g id="edge23" class="edge">
<title>n07a&#45;&gt;n08a</title>
<path fill="none" stroke="#6a1b9a" stroke-width="1.4" d="M145.53,-58.01C184.68,-73.67 241.43,-96.37 282.7,-112.88"/>
<polygon fill="#6a1b9a" stroke="#6a1b9a" stroke-width="1.4" points="281.75,-115.52 290.22,-115.89 283.83,-110.32 281.75,-115.52"/>
</g>
<!-- n07c -->
<g id="node16" class="node">
<title>n07c</title>
<path fill="white" stroke="#9aa0a6" d="M645,-58C645,-58 536,-58 536,-58 530,-58 524,-52 524,-46 524,-46 524,-34 524,-34 524,-28 530,-22 536,-22 536,-22 645,-22 645,-22 651,-22 657,-28 657,-34 657,-34 657,-46 657,-46 657,-52 651,-58 645,-58"/>
<text text-anchor="middle" x="590.5" y="-37.2" font-family="Helvetica,sans-Serif" font-size="11.00">Central/sino (admin)</text>
</g>
<!-- n07b&#45;&gt;n07c -->
<g id="edge10" class="edge">
<title>n07b&#45;&gt;n07c</title>
<path fill="none" stroke="#202124" stroke-width="1.4" d="M413.11,-40C445.59,-40 483.41,-40 515.69,-40"/>
<polygon fill="#202124" stroke="#202124" stroke-width="1.4" points="515.77,-42.8 523.77,-40 515.77,-37.2 515.77,-42.8"/>
</g>
<!-- n08a&#45;&gt;n08b -->
<g id="edge11" class="edge">
<title>n08a&#45;&gt;n08b</title>
<path fill="none" stroke="#202124" stroke-width="1.4" d="M404.04,-134C432.69,-134 466.65,-134 497.64,-134"/>
<polygon fill="#202124" stroke="#202124" stroke-width="1.4" points="497.87,-136.8 505.87,-134 497.87,-131.2 497.87,-136.8"/>
</g>
<!-- n08c -->
<g id="node19" class="node">
<title>n08c</title>
<path fill="white" stroke="#9aa0a6" d="M951,-152C951,-152 828,-152 828,-152 822,-152 816,-146 816,-140 816,-140 816,-128 816,-128 816,-122 822,-116 828,-116 828,-116 951,-116 951,-116 957,-116 963,-122 963,-128 963,-128 963,-140 963,-140 963,-146 957,-152 951,-152"/>
<text text-anchor="middle" x="889.5" y="-131.2" font-family="Helvetica,sans-Serif" font-size="11.00">UI gerenciar templates</text>
</g>
<!-- n08b&#45;&gt;n08c -->
<g id="edge12" class="edge">
<title>n08b&#45;&gt;n08c</title>
<path fill="none" stroke="#202124" stroke-width="1.4" d="M675.02,-134C716.52,-134 766.45,-134 807.59,-134"/>
<polygon fill="#202124" stroke="#202124" stroke-width="1.4" points="807.69,-136.8 815.69,-134 807.69,-131.2 807.69,-136.8"/>
</g>
</g>
</svg>
