<svg xmlns="http://www.w3.org/2000/svg" width="940" height="684" viewBox="0 0 940 684" font-family="Helvetica,Arial,sans-serif">
<defs><marker id="ah" markerWidth="10" markerHeight="10" refX="8" refY="3" orient="auto" markerUnits="userSpaceOnUse"><path d="M0,0 L9,3 L0,6 Z" fill="#37474F"/></marker><marker id="ahr" markerWidth="10" markerHeight="10" refX="8" refY="3" orient="auto" markerUnits="userSpaceOnUse"><path d="M0,0 L9,3 L0,6 Z" fill="#78909C"/></marker></defs>
<rect x="0" y="0" width="940" height="684" fill="#FFFFFF"/>
<text x="40" y="24" font-size="17" font-weight="bold" fill="#222">Diagrama leve · F21 — Registrar interacoes comerciais (CP1)</text>
<line x1="125" y1="80" x2="125" y2="664" stroke="#B0BEC5" stroke-width="1.4" stroke-dasharray="5,5"/>
<rect x="40" y="40" width="170" height="40" rx="7" fill="#5B3E96"/>
<text x="125" y="65" text-anchor="middle" font-size="13" font-weight="bold" fill="#FFFFFF">Admin</text>
<line x1="355" y1="80" x2="355" y2="664" stroke="#B0BEC5" stroke-width="1.4" stroke-dasharray="5,5"/>
<rect x="270" y="40" width="170" height="40" rx="7" fill="#D63384"/>
<text x="355" y="65" text-anchor="middle" font-size="13" font-weight="bold" fill="#FFFFFF">SvelteKit</text>
<line x1="585" y1="80" x2="585" y2="664" stroke="#B0BEC5" stroke-width="1.4" stroke-dasharray="5,5"/>
<rect x="500" y="40" width="170" height="40" rx="7" fill="#E67E22"/>
<text x="585" y="65" text-anchor="middle" font-size="13" font-weight="bold" fill="#FFFFFF">Express API</text>
<line x1="815" y1="80" x2="815" y2="664" stroke="#B0BEC5" stroke-width="1.4" stroke-dasharray="5,5"/>
<rect x="730" y="40" width="170" height="40" rx="7" fill="#2BB673"/>
<text x="815" y="65" text-anchor="middle" font-size="13" font-weight="bold" fill="#FFFFFF">Supabase DB</text>
<rect x="20" y="108" width="900" height="26" rx="5" fill="#FCE7A2" stroke="#E0B33A" stroke-width="1"/>
<text x="470" y="125" text-anchor="middle" font-size="12.5" font-weight="bold" fill="#5A4500">RF42 · Adicionar interacao</text>
<text x="240" y="166" text-anchor="middle" font-size="11" fill="#333">adicionar nota de interacao</text>
<line x1="125" y1="172" x2="355" y2="172" stroke="#37474F" stroke-width="1.5" marker-end="url(#ah)"/>
<text x="470" y="210" text-anchor="middle" font-size="11" fill="#333">POST /api/crm/clients/:id/interactions  (Bearer)</text>
<line x1="355" y1="216" x2="585" y2="216" stroke="#37474F" stroke-width="1.5" marker-end="url(#ah)"/>
<path d="M585,252 h30 v18 h-30" fill="none" stroke="#37474F" stroke-width="1.5" marker-end="url(#ah)"/>
<text x="623" y="258" font-size="11" fill="#333">validateJWT + requireRole</text>
<text x="700" y="288" text-anchor="middle" font-size="11" fill="#333">INSERT interactions (autor_id = JWT, tipo, conteudo, data)</text>
<line x1="585" y1="294" x2="815" y2="294" stroke="#37474F" stroke-width="1.5" marker-end="url(#ah)"/>
<text x="470" y="332" text-anchor="middle" font-size="11" fill="#333">201 Created</text>
<line x1="585" y1="338" x2="355" y2="338" stroke="#78909C" stroke-width="1.5" stroke-dasharray="6,4" marker-end="url(#ahr)"/>
<text x="240" y="372" text-anchor="middle" font-size="11" fill="#333">timeline atualizada</text>
<line x1="355" y1="378" x2="125" y2="378" stroke="#78909C" stroke-width="1.5" stroke-dasharray="6,4" marker-end="url(#ahr)"/>
<rect x="20" y="398" width="900" height="26" rx="5" fill="#FCE7A2" stroke="#E0B33A" stroke-width="1"/>
<text x="470" y="415" text-anchor="middle" font-size="12.5" font-weight="bold" fill="#5A4500">RF59 · Editar  /  RF53 · Remover interacao</text>
<text x="240" y="456" text-anchor="middle" font-size="11" fill="#333">editar / remover interacao</text>
<line x1="125" y1="462" x2="355" y2="462" stroke="#37474F" stroke-width="1.5" marker-end="url(#ah)"/>
<text x="470" y="500" text-anchor="middle" font-size="11" fill="#333">PATCH | DELETE /api/.../interactions/:iid  (Bearer)</text>
<line x1="355" y1="506" x2="585" y2="506" stroke="#37474F" stroke-width="1.5" marker-end="url(#ah)"/>
<text x="700" y="544" text-anchor="middle" font-size="11" fill="#333">UPDATE interactions | soft-delete (removed=true)</text>
<line x1="585" y1="550" x2="815" y2="550" stroke="#37474F" stroke-width="1.5" marker-end="url(#ah)"/>
<text x="470" y="588" text-anchor="middle" font-size="11" fill="#333">200 OK</text>
<line x1="585" y1="594" x2="355" y2="594" stroke="#78909C" stroke-width="1.5" stroke-dasharray="6,4" marker-end="url(#ahr)"/>
<text x="240" y="628" text-anchor="middle" font-size="11" fill="#333">timeline atualizada (preserva autoria e data)</text>
<line x1="355" y1="634" x2="125" y2="634" stroke="#78909C" stroke-width="1.5" stroke-dasharray="6,4" marker-end="url(#ahr)"/>
</svg>